<svg xmlns="http://www.w3.org/2000/svg" viewBox="0 -760 4065.0 1000">
  <title>Pixelody</title>
  <path fill="currentColor" d="M70 200V-496H194V-436H212Q229 -465 265.0 -487.5Q301 -510 368 -510Q428 -510 479.0 -480.5Q530 -451 561.0 -394.0Q592 -337 592 -256V-240Q592 -159 561.0 -102.0Q530 -45 479.0 -15.5Q428 14 368 14Q323 14 292.5 3.5Q262 -7 243.5 -23.5Q225 -40 214 -57H196V200ZM330 -96Q389 -96 427.5 -133.5Q466 -171 466 -243V-253Q466 -325 427.0 -362.5Q388 -400 330 -400Q272 -400 233.0 -362.5Q194 -325 194 -253V-243Q194 -171 233.0 -133.5Q272 -96 330 -96ZM688 0V-496H814V0ZM751 -554Q717 -554 693.5 -576.0Q670 -598 670 -634Q670 -670 693.5 -692.0Q717 -714 751 -714Q786 -714 809.0 -692.0Q832 -670 832 -634Q832 -598 809.0 -576.0Q786 -554 751 -554ZM890 0 1070 -250 892 -496H1038L1151 -331H1169L1282 -496H1428L1250 -250L1430 0H1282L1169 -167H1151L1038 0ZM1732 14Q1658 14 1601.5 -17.5Q1545 -49 1513.5 -106.5Q1482 -164 1482 -242V-254Q1482 -332 1513.0 -389.5Q1544 -447 1600.0 -478.5Q1656 -510 1730 -510Q1803 -510 1857.0 -477.5Q1911 -445 1941.0 -387.5Q1971 -330 1971 -254V-211H1610Q1612 -160 1648.0 -128.0Q1684 -96 1736 -96Q1789 -96 1814.0 -119.0Q1839 -142 1852 -170L1955 -116Q1941 -90 1914.5 -59.5Q1888 -29 1844.0 -7.5Q1800 14 1732 14ZM1611 -305H1843Q1839 -348 1808.5 -374.0Q1778 -400 1729 -400Q1678 -400 1648.0 -374.0Q1618 -348 1611 -305ZM2063 0V-700H2189V0ZM2545 14Q2471 14 2412.0 -16.0Q2353 -46 2319.0 -103.0Q2285 -160 2285 -240V-256Q2285 -336 2319.0 -393.0Q2353 -450 2412.0 -480.0Q2471 -510 2545 -510Q2619 -510 2678.0 -480.0Q2737 -450 2771.0 -393.0Q2805 -336 2805 -256V-240Q2805 -160 2771.0 -103.0Q2737 -46 2678.0 -16.0Q2619 14 2545 14ZM2545 -98Q2603 -98 2641.0 -135.5Q2679 -173 2679 -243V-253Q2679 -323 2641.5 -360.5Q2604 -398 2545 -398Q2487 -398 2449.0 -360.5Q2411 -323 2411 -253V-243Q2411 -173 2449.0 -135.5Q2487 -98 2545 -98ZM3101 14Q3042 14 2990.5 -15.5Q2939 -45 2908.0 -102.0Q2877 -159 2877 -240V-256Q2877 -337 2908.0 -394.0Q2939 -451 2990.0 -480.5Q3041 -510 3101 -510Q3146 -510 3176.5 -499.5Q3207 -489 3226.0 -473.0Q3245 -457 3255 -439H3273V-700H3399V0H3275V-60H3257Q3240 -32 3204.5 -9.0Q3169 14 3101 14ZM3139 -96Q3197 -96 3236.0 -133.5Q3275 -171 3275 -243V-253Q3275 -325 3236.5 -362.5Q3198 -400 3139 -400Q3081 -400 3042.0 -362.5Q3003 -325 3003 -253V-243Q3003 -171 3042.0 -133.5Q3081 -96 3139 -96ZM3573 200V90H3843Q3871 90 3871 60V-65H3853Q3845 -48 3828.0 -31.0Q3811 -14 3782.0 -3.0Q3753 8 3708 8Q3650 8 3606.5 -18.5Q3563 -45 3539.0 -92.0Q3515 -139 3515 -200V-496H3641V-210Q3641 -154 3668.5 -126.0Q3696 -98 3747 -98Q3805 -98 3837.0 -136.5Q3869 -175 3869 -244V-496H3995V88Q3995 139 3965.0 169.5Q3935 200 3885 200Z"/>
</svg>
