<svg xmlns="http://www.w3.org/2000/svg" viewBox="0 0 24 24" width="512" height="512"><rect width="24" height="24" rx="5.25" fill="#0d0b1a"/><defs><clipPath id="c4"><circle cx="12" cy="12" r="8"/></clipPath></defs><circle cx="12" cy="12" r="8" fill="#a98cff"/><circle cx="12" cy="12" r="6.9" fill="none" stroke="#0d0b1a" stroke-width="0.22" opacity=".45"/><circle cx="12" cy="12" r="5.9" fill="none" stroke="#0d0b1a" stroke-width="0.22" opacity=".45"/><circle cx="12" cy="12" r="4.9" fill="none" stroke="#0d0b1a" stroke-width="0.22" opacity=".45"/><circle cx="12" cy="12" r="3.9" fill="none" stroke="#0d0b1a" stroke-width="0.22" opacity=".45"/><g clip-path="url(#c4)"><path d="M2,12L4.000,12.000L4.000,11.000L5.333,11.000L5.333,9.000L6.667,9.000L6.667,7.500L8.000,7.500L8.000,7.500L9.333,7.500L9.333,9.000L10.667,9.000L10.667,11.000L12.000,11.000L12.000,13.000L13.333,13.000L13.333,15.000L14.667,15.000L14.667,16.500L16.000,16.500L16.000,16.500L17.333,16.500L17.333,15.000L18.667,15.000L18.667,13.000L20.000,13.000L20.000,12.000L22,12" fill="none" stroke="#0d0b1a" stroke-width="1.25" stroke-linecap="butt" stroke-linejoin="miter"/></g><circle cx="12" cy="12" r="1.1" fill="#6ed8dd"/><circle cx="12" cy="12" r="0.4" fill="#0d0b1a"/></svg>